# xmcd CD database file
#
# Track frame offsets:
#	150
#	15341
#	44901
#	61336
#	78014
#	98810
#	117523
#	131560
#	150132
#	185050
#	198579
#	209475
#	222114
#	255163
#	300883
#	315445
#	327225
#
# Disc length: 4676 seconds
#
# Revision: 0
# Processed by: cddbd v1.5.2PL0 Copyright (c) Steve Scherf et al.
# Submitted via: CDex 1.70beta2
#
DISCID=dc124211
DTITLE=Gerry Mulligan - 1949-1958: The Golden Years
DYEAR=1958
DGENRE=Jazz
TTITLE0=Bark for Barksdale
TTITLE1=I Mean You
TTITLE2=Anything Goes
TTITLE3=Betwwen the Devil and the Deep Blue Sea
TTITLE4=Disc Jockey Jump
TTITLE5=My Funny Valentine
TTITLE6=Bop City
TTITLE7=Moolight in Vermont
TTITLE8=Battle Hymn of the Republican
TTITLE9=Simbah
TTITLE10=Limelight
TTITLE11=My Buddy
TTITLE12=The Red Door
TTITLE13=Chocolate Sundae
TTITLE14=Funhouse
TTITLE15=Elevation
TTITLE16=The Lady is a Tramp
EXTD=YEAR: 1958
EXTT0=
EXTT1=
EXTT2=
EXTT3=
EXTT4=
EXTT5=
EXTT6=
EXTT7=
EXTT8=
EXTT9=
EXTT10=
EXTT11=
EXTT12=
EXTT13=
EXTT14=
EXTT15=
EXTT16=
PLAYORDER=
